<?xml version="1.0" encoding="UTF-8"?>
<svg width="105px" height="60px" viewBox="0 0 105 60" version="1.1" xmlns="http://www.w3.org/2000/svg" xmlns:xlink="http://www.w3.org/1999/xlink">
    <title>3DFF6098-CAE5-41D5-9659-66E2BFB7203A</title>
    <defs>
        <polygon id="path-1" points="0 59.7857143 104.379009 59.7857143 104.379009 -7.61295788e-15 0 -7.61295788e-15"></polygon>
    </defs>
    <g id="drafts" stroke="none" stroke-width="1" fill="none" fill-rule="evenodd">
        <g id="headers" transform="translate(-55.000000, -61.000000)">
            <g id="Group-35" transform="translate(55.000000, 61.000000)">
                <path d="M26.8926781,25.1890179 C26.8926781,23.221875 25.8645577,22.5216964 24.2720103,22.5216964 C22.7460856,22.5216964 21.7510099,23.3552679 21.1535382,24.0886607 L21.1535382,34.4922321 L16.0449148,34.4922321 L16.0449148,18.3870536 L21.1535382,18.3870536 L21.1535382,19.8024107 L20.5251535,20.9804464 C21.4871843,19.846875 24.0065857,17.986875 26.6933432,17.986875 C30.3426644,17.986875 32.0013015,20.1211607 32.0013015,23.0884821 L32.0013015,34.4922321 L26.8926781,34.4922321 L26.8926781,25.1890179 Z" id="Fill-1" fill="#FFFFFF"></path>
                <path d="M44.3894333,32.11275 C43.3943577,33.2468571 41.0247239,34.8920357 38.3379665,34.8920357 C34.6886452,34.8920357 33.063053,32.82525 33.063053,29.8573929 L33.063053,18.3872143 L38.1716764,18.3872143 L38.1716764,27.7568571 C38.1716764,29.6907857 39.167285,30.35775 40.825389,30.35775 C42.2852241,30.35775 43.2802997,29.5568571 43.8777715,28.79025 L43.8777715,18.3872143 L48.9863949,18.3872143 L48.9863949,34.4918571 L43.8777715,34.4918571 L43.8777715,33.29025 L44.3894333,32.11275 Z" id="Fill-3" fill="#FFFFFF"></path>
                <path d="M70.9658938,24.7223571 L77.567397,24.7223571 C77.4346848,23.5887857 76.6058992,21.9548571 74.250123,21.9548571 C72.027592,21.9548571 71.1652287,23.5550357 70.9658938,24.7223571 M74.250123,17.9868214 C78.9941873,17.9868214 82.4441737,21.4877143 82.4441737,26.9562857 L82.4441737,28.0566429 L71.4109329,28.0566429 L70.9701576,27.4673571 C70.9728225,27.6634286 70.9989386,27.9425357 71.0602314,28.1830714 C71.4279883,29.6289643 72.7913539,30.9243214 75.1124863,30.9243214 C76.5392766,30.9243214 78.131291,30.3575357 79.0272321,29.5571786 L81.1836735,32.7580714 C79.5911261,34.1921786 76.9374134,34.8923571 74.4825027,34.8923571 C69.5396365,34.8923571 65.7245581,31.6577143 65.7245581,26.4227143 C65.7245581,21.7545 69.2411671,17.9868214 74.250123,17.9868214" id="Fill-5" fill="#FFFFFF"></path>
                <mask id="mask-2" fill="white">
                    <use xlink:href="#path-1"></use>
                </mask>
                <g id="Clip-8"></g>
                <polygon id="Fill-7" fill="#FFFFFF" mask="url(#mask-2)" points="83.4786899 34.4919643 88.5873132 34.4919643 88.5873132 18.3873214 83.4786899 18.3873214"></polygon>
                <polygon id="Fill-9" fill="#FFFFFF" mask="url(#mask-2)" points="61.6254542 18.3871607 58.1744019 27.9780536 58.3007184 29.4732321 54.3603895 18.3871607 50.0054013 18.3871607 50.0054013 20.9907321 55.2893755 34.4923393 60.730046 34.4923393 67.0330799 18.3871607"></polygon>
                <path d="M83.113811,13.419 C83.113811,11.7850714 84.407356,10.4843571 86.0329483,10.4843571 C87.6585405,10.4843571 88.9526184,11.7850714 88.9526184,13.419 C88.9526184,15.0523929 87.6585405,16.3531071 86.0329483,16.3531071 C84.407356,16.3531071 83.113811,15.0523929 83.113811,13.419" id="Fill-10" fill="#40C1AC" mask="url(#mask-2)"></path>
                <path d="M18.3607708,40.8207321 C18.3607708,40.3819821 18.046312,40.0776964 17.5858163,40.0776964 L16.5667566,40.0776964 L16.5667566,41.5637679 L17.5858163,41.5637679 C18.046312,41.5637679 18.3607708,41.2594821 18.3607708,40.8207321 L18.3607708,40.8207321 Z M16.0833427,43.5469821 L16.0833427,39.6448393 L17.6444442,39.6448393 C18.4247285,39.6448393 18.861773,40.1826964 18.861773,40.8207321 C18.861773,41.4582321 18.4188657,41.996625 17.6444442,41.996625 L16.5667566,41.996625 L16.5667566,43.5469821 L16.0833427,43.5469821 Z" id="Fill-11" fill="#FFFFFF" mask="url(#mask-2)"></path>
                <path d="M21.1279551,42.95025 L21.1279551,42.4118571 C20.9590001,42.1836429 20.6615967,42.0668571 20.3588634,42.0668571 C19.9452701,42.0668571 19.6595923,42.3245357 19.6595923,42.6813214 C19.6595923,43.044 19.9452701,43.3011429 20.3588634,43.3011429 C20.6615967,43.3011429 20.9590001,43.1843571 21.1279551,42.95025 L21.1279551,42.95025 Z M21.1279551,43.5470357 L21.1279551,43.2256071 C20.9003722,43.48275 20.5741878,43.61775 20.1957712,43.61775 C19.72355,43.61775 19.217218,43.2957857 19.217218,42.6813214 C19.217218,42.0432857 19.7176872,41.7513214 20.1957712,41.7513214 C20.5800506,41.7513214 20.9003722,41.874 21.1279551,42.1316786 L21.1279551,41.6222143 C21.1279551,41.24775 20.8246889,41.0307857 20.4169584,41.0307857 C20.0790484,41.0307857 19.8050961,41.1481071 19.555128,41.4229286 L19.3509963,41.1191786 C19.6537295,40.8031071 20.0150907,40.6509643 20.4755863,40.6509643 C21.07519,40.6509643 21.5644666,40.9198929 21.5644666,41.6045357 L21.5644666,43.5470357 L21.1279551,43.5470357 Z" id="Fill-12" fill="#FFFFFF" mask="url(#mask-2)"></path>
                <path d="M22.356583,44.2550357 C22.4205407,44.2845 22.525538,44.3016429 22.5948255,44.3016429 C22.7872317,44.3016429 22.9156801,44.2373571 23.0148146,44.0037857 L23.200825,43.5762857 L22.0240028,40.7209286 L22.5015538,40.7209286 L23.4337377,43.0384286 L24.3717843,40.7209286 L24.8434726,40.7209286 L23.4337377,44.1205714 C23.2653157,44.5303929 22.9796378,44.6884286 22.6065511,44.6937857 C22.5132794,44.6937857 22.3677756,44.6766429 22.2920923,44.6530714 L22.356583,44.2550357 Z" id="Fill-13" fill="#FFFFFF" mask="url(#mask-2)"></path>
                <path d="M28.6940475,43.5471964 L28.6940475,41.6277321 C28.6940475,41.2709464 28.5426808,41.0427321 28.1754569,41.0427321 C27.8839163,41.0427321 27.5753202,41.2479107 27.4298164,41.476125 L27.4298164,43.5471964 L26.9933049,43.5471964 L26.9933049,41.6277321 C26.9933049,41.2709464 26.8472681,41.0427321 26.4741814,41.0427321 C26.1890365,41.0427321 25.8863033,41.2532679 25.7344037,41.4820179 L25.7344037,43.5471964 L25.2978922,43.5471964 L25.2978922,40.7213036 L25.7344037,40.7213036 L25.7344037,41.1305893 C25.8569893,40.9495179 26.2300761,40.6505893 26.6495322,40.6505893 C27.074851,40.6505893 27.3189564,40.8846964 27.4005025,41.1777321 C27.5582649,40.9200536 27.9366814,40.6505893 28.3444119,40.6505893 C28.8571397,40.6505893 29.1310919,40.9377321 29.1310919,41.5050536 L29.1310919,43.5471964 L28.6940475,43.5471964 Z" id="Fill-14" fill="#FFFFFF" mask="url(#mask-2)"></path>
                <path d="M31.2220832,41.0138036 C30.6219465,41.0138036 30.3245431,41.5227321 30.3016249,41.9502321 L32.1484042,41.9502321 C32.1425415,41.5345179 31.8632594,41.0138036 31.2220832,41.0138036 M29.8416623,42.1313036 C29.8416623,41.3121964 30.4236776,40.6505893 31.227946,40.6505893 C32.0780507,40.6505893 32.5790529,41.3180893 32.5790529,42.166125 L32.5790529,42.2775536 L30.3074877,42.2775536 C30.3421315,42.8100536 30.7093554,43.2546964 31.3153549,43.2546964 C31.6415393,43.2546964 31.9618609,43.1255893 32.1889108,42.8920179 L32.3989053,43.178625 C32.1132275,43.4593393 31.734278,43.617375 31.2801781,43.617375 C30.4412659,43.617375 29.8416623,43.0146964 29.8416623,42.1313036" id="Fill-15" fill="#FFFFFF" mask="url(#mask-2)"></path>
                <path d="M35.1884749,43.5471964 L35.1884749,41.6984464 C35.1884749,41.1954107 34.932111,41.0427321 34.5536944,41.0427321 C34.2099216,41.0427321 33.8890671,41.2532679 33.720645,41.4820179 L33.720645,43.5471964 L33.2836006,43.5471964 L33.2836006,40.7213036 L33.720645,40.7213036 L33.720645,41.1305893 C33.918914,40.891125 34.3031933,40.6505893 34.7285122,40.6505893 C35.3105275,40.6505893 35.6196565,40.9495179 35.6196565,41.5639821 L35.6196565,43.5471964 L35.1884749,43.5471964 Z" id="Fill-16" fill="#FFFFFF" mask="url(#mask-2)"></path>
                <path d="M36.5865374,42.95625 L36.5865374,41.1069643 L36.120179,41.1069643 L36.120179,40.72125 L36.5865374,40.72125 L36.5865374,39.94875 L37.0289117,39.94875 L37.0289117,40.72125 L37.5997344,40.72125 L37.5997344,41.1069643 L37.0289117,41.1069643 L37.0289117,42.8625 C37.0289117,43.0735714 37.1221834,43.2251786 37.3087268,43.2251786 C37.4371752,43.2251786 37.5475023,43.1667857 37.6061302,43.1019643 L37.7340456,43.43625 C37.6231856,43.54125 37.4659562,43.6173214 37.2154551,43.6173214 C36.796532,43.6173214 36.5865374,43.3773214 36.5865374,42.95625" id="Fill-17" fill="#FFFFFF" mask="url(#mask-2)"></path>
                <polygon id="Fill-18" fill="#FFFFFF" mask="url(#mask-2)" points="40.6986461 43.5471964 40.6986461 40.077375 39.4695918 40.077375 39.4695918 39.6445179 42.41751 39.6445179 42.41751 40.077375 41.1820599 40.077375 41.1820599 43.5471964"></polygon>
                <path d="M43.5881496,41.0138036 C42.9880129,41.0138036 42.6906095,41.5227321 42.6676913,41.9502321 L44.5144707,41.9502321 C44.5086079,41.5345179 44.2287928,41.0138036 43.5881496,41.0138036 M42.2077287,42.1313036 C42.2077287,41.3121964 42.789744,40.6505893 43.5940124,40.6505893 C44.4441172,40.6505893 44.9451194,41.3180893 44.9451194,42.166125 L44.9451194,42.2775536 L42.6735541,42.2775536 C42.7081979,42.8100536 43.0754218,43.2546964 43.6814213,43.2546964 C44.0076057,43.2546964 44.3279273,43.1255893 44.5549772,42.8920179 L44.7644388,43.178625 C44.4792939,43.4593393 44.1003444,43.617375 43.6462445,43.617375 C42.8073324,43.617375 42.2077287,43.0146964 42.2077287,42.1313036" id="Fill-19" fill="#FFFFFF" mask="url(#mask-2)"></path>
                <path d="M45.4866281,42.1315179 C45.4866281,41.2947321 46.051588,40.6508036 46.8905002,40.6508036 C47.403228,40.6508036 47.7059612,40.8613393 47.9212855,41.1425893 L47.6302779,41.405625 C47.4437345,41.1484821 47.204959,41.0429464 46.9134184,41.0429464 C46.3196775,41.0429464 45.9412609,41.5052679 45.9412609,42.1315179 C45.9412609,42.7572321 46.3196775,43.2254464 46.9134184,43.2254464 C47.204959,43.2254464 47.4437345,43.108125 47.6302779,42.856875 L47.9212855,43.1258036 C47.7059612,43.4070536 47.403228,43.6175893 46.8905002,43.6175893 C46.051588,43.6175893 45.4866281,42.9677679 45.4866281,42.1315179" id="Fill-20" fill="#FFFFFF" mask="url(#mask-2)"></path>
                <path d="M50.4435118,43.5471964 L50.4435118,41.6866607 C50.4435118,41.183625 50.1930107,41.0427321 49.8081983,41.0427321 C49.4708213,41.0427321 49.144104,41.2532679 48.9810118,41.4820179 L48.9810118,43.5471964 L48.5445003,43.5471964 L48.5445003,39.6445179 L48.9810118,39.6445179 L48.9810118,41.1305893 C49.1739509,40.891125 49.5582302,40.6505893 49.9830161,40.6505893 C50.5714272,40.6505893 50.8805562,40.9377321 50.8805562,41.5521964 L50.8805562,43.5471964 L50.4435118,43.5471964 Z" id="Fill-21" fill="#FFFFFF" mask="url(#mask-2)"></path>
                <path d="M53.6588265,43.5471964 L53.6588265,41.6984464 C53.6588265,41.1954107 53.4024626,41.0427321 53.0240461,41.0427321 C52.6802733,41.0427321 52.3594187,41.2532679 52.1909967,41.4820179 L52.1909967,43.5471964 L51.7539523,43.5471964 L51.7539523,40.7213036 L52.1909967,40.7213036 L52.1909967,41.1305893 C52.3892657,40.891125 52.773545,40.6505893 53.1983309,40.6505893 C53.7808792,40.6505893 54.0900082,40.9495179 54.0900082,41.5639821 L54.0900082,43.5471964 L53.6588265,43.5471964 Z" id="Fill-22" fill="#FFFFFF" mask="url(#mask-2)"></path>
                <path d="M57.1305052,42.1315179 C57.1305052,41.5577679 56.798458,41.0429464 56.1983213,41.0429464 C55.5981847,41.0429464 55.2661375,41.5577679 55.2661375,42.1315179 C55.2661375,42.710625 55.5981847,43.2254464 56.1983213,43.2254464 C56.798458,43.2254464 57.1305052,42.710625 57.1305052,42.1315179 M54.8061748,42.1315179 C54.8061748,41.311875 55.3423538,40.6508036 56.1983213,40.6508036 C57.0548219,40.6508036 57.5910008,41.311875 57.5910008,42.1315179 C57.5910008,42.9500893 57.0548219,43.6175893 56.1983213,43.6175893 C55.3423538,43.6175893 54.8061748,42.9500893 54.8061748,42.1315179" id="Fill-23" fill="#FFFFFF" mask="url(#mask-2)"></path>
                <polygon id="Fill-24" fill="#FFFFFF" mask="url(#mask-2)" points="58.3011981 43.5471429 58.7377095 43.5471429 58.7377095 39.6444643 58.3011981 39.6444643"></polygon>
                <path d="M61.7729833,42.1315179 C61.7729833,41.5577679 61.4404032,41.0429464 60.8407995,41.0429464 C60.2406628,41.0429464 59.9086156,41.5577679 59.9086156,42.1315179 C59.9086156,42.710625 60.2406628,43.2254464 60.8407995,43.2254464 C61.4404032,43.2254464 61.7729833,42.710625 61.7729833,42.1315179 M59.448653,42.1315179 C59.448653,41.311875 59.9848319,40.6508036 60.8407995,40.6508036 C61.696767,40.6508036 62.232946,41.311875 62.232946,42.1315179 C62.232946,42.9500893 61.696767,43.6175893 60.8407995,43.6175893 C59.9848319,43.6175893 59.448653,42.9500893 59.448653,42.1315179" id="Fill-25" fill="#FFFFFF" mask="url(#mask-2)"></path>
                <path d="M64.9825952,42.7336607 L64.9825952,41.4934821 C64.8253658,41.2534821 64.4869228,41.0429464 64.143683,41.0429464 C63.5723274,41.0429464 63.2349503,41.4934821 63.2349503,42.1197321 C63.2349503,42.7395536 63.5723274,43.190625 64.143683,43.190625 C64.4869228,43.190625 64.8253658,42.9795536 64.9825952,42.7336607 M62.9380799,44.266875 L63.159267,43.9508036 C63.3921798,44.225625 63.6714618,44.3311607 64.0733295,44.3311607 C64.539688,44.3311607 64.9825952,44.1029464 64.9825952,43.5061607 L64.9825952,43.0791964 C64.7726007,43.3658036 64.4288279,43.5822321 64.032823,43.5822321 C63.2983751,43.5822321 62.7803175,43.0325893 62.7803175,42.1197321 C62.7803175,41.2122321 63.2930453,40.6508036 64.032823,40.6508036 C64.4112395,40.6508036 64.7550123,40.8377679 64.9825952,41.1484821 L64.9825952,40.7209821 L65.4191067,40.7209821 L65.4191067,43.5061607 C65.4191067,44.4013393 64.7608751,44.6938393 64.0733295,44.6938393 C63.6016413,44.6938393 63.2754569,44.6000893 62.9380799,44.266875" id="Fill-26" fill="#FFFFFF" mask="url(#mask-2)"></path>
                <path d="M66.2052004,44.2550357 C66.2691582,44.2845 66.3741554,44.3016429 66.4439759,44.3016429 C66.6363821,44.3016429 66.7642976,44.2373571 66.863432,44.0037857 L67.0499754,43.5762857 L65.8731532,40.7209286 L66.3507043,40.7209286 L67.2828881,43.0384286 L68.2204018,40.7209286 L68.69209,40.7209286 L67.2828881,44.1205714 C67.1139331,44.5303929 66.8282553,44.6884286 66.4557015,44.6937857 C66.3624298,44.6937857 66.216926,44.6766429 66.1412427,44.6530714 L66.2052004,44.2550357 Z" id="Fill-27" fill="#FFFFFF" mask="url(#mask-2)"></path>
                <path d="M72.950502,40.8207321 C72.950502,40.3819821 72.6360432,40.0776964 72.1755476,40.0776964 L71.1564878,40.0776964 L71.1564878,41.5637679 L72.1755476,41.5637679 C72.6360432,41.5637679 72.950502,41.2594821 72.950502,40.8207321 L72.950502,40.8207321 Z M70.673074,43.5469821 L70.673074,39.6448393 L72.2341755,39.6448393 C73.0144597,39.6448393 73.4515042,40.1826964 73.4515042,40.8207321 C73.4515042,41.4582321 73.0085969,41.996625 72.2341755,41.996625 L71.1564878,41.996625 L71.1564878,43.5469821 L70.673074,43.5469821 Z" id="Fill-28" fill="#FFFFFF" mask="url(#mask-2)"></path>
                <path d="M75.7171533,42.95025 L75.7171533,42.4118571 C75.5481983,42.1836429 75.2507949,42.0668571 74.9480617,42.0668571 C74.5344684,42.0668571 74.2493235,42.3245357 74.2493235,42.6813214 C74.2493235,43.044 74.5344684,43.3011429 74.9480617,43.3011429 C75.2507949,43.3011429 75.5481983,43.1843571 75.7171533,42.95025 L75.7171533,42.95025 Z M75.7171533,43.5470357 L75.7171533,43.2256071 C75.4895704,43.48275 75.163386,43.61775 74.7849695,43.61775 C74.3132813,43.61775 73.8064163,43.2957857 73.8064163,42.6813214 C73.8064163,42.0432857 74.3068855,41.7513214 74.7849695,41.7513214 C75.1697818,41.7513214 75.4895704,41.874 75.7171533,42.1316786 L75.7171533,41.6222143 C75.7171533,41.24775 75.4138871,41.0307857 75.0066896,41.0307857 C74.6682466,41.0307857 74.3948274,41.1481071 74.1443263,41.4229286 L73.9407275,41.1191786 C74.2434607,40.8031071 74.6048219,40.6509643 75.0647845,40.6509643 C75.6643882,40.6509643 76.1536648,40.9198929 76.1536648,41.6045357 L76.1536648,43.5470357 L75.7171533,43.5470357 Z" id="Fill-29" fill="#FFFFFF" mask="url(#mask-2)"></path>
                <path d="M77.0337231,43.5471964 L77.0337231,40.7213036 L77.4702346,40.7213036 L77.4702346,41.1718393 C77.6978175,40.8793393 78.0234689,40.6564821 78.4082813,40.6564821 L78.4082813,41.1070179 C78.3555161,41.1016607 78.303284,41.0957679 78.2393263,41.0957679 C77.965907,41.0957679 77.598683,41.3180893 77.4702346,41.5463036 L77.4702346,43.5471964 L77.0337231,43.5471964 Z" id="Fill-30" fill="#FFFFFF" mask="url(#mask-2)"></path>
                <path d="M79.0430617,42.9559821 L79.0430617,41.1072321 L78.5767033,41.1072321 L78.5767033,40.7209821 L79.0430617,40.7209821 L79.0430617,39.9484821 L79.485436,39.9484821 L79.485436,40.7209821 L80.0562587,40.7209821 L80.0562587,41.1072321 L79.485436,41.1072321 L79.485436,42.8627679 C79.485436,43.0733036 79.5787076,43.2254464 79.765251,43.2254464 C79.8936994,43.2254464 80.0040265,43.1670536 80.0626544,43.1022321 L80.1905699,43.4359821 C80.0797098,43.5409821 79.9224804,43.6175893 79.6719793,43.6175893 C79.2530562,43.6175893 79.0430617,43.3775893 79.0430617,42.9559821" id="Fill-31" fill="#FFFFFF" mask="url(#mask-2)"></path>
                <path d="M82.572782,43.5471964 L82.572782,41.6984464 C82.572782,41.1954107 82.3164181,41.0427321 81.9380015,41.0427321 C81.5947618,41.0427321 81.2739072,41.2532679 81.1049522,41.4820179 L81.1049522,43.5471964 L80.6684407,43.5471964 L80.6684407,40.7213036 L81.1049522,40.7213036 L81.1049522,41.1305893 C81.3032211,40.891125 81.6875005,40.6505893 82.1128193,40.6505893 C82.6948346,40.6505893 83.0039636,40.9495179 83.0039636,41.5639821 L83.0039636,43.5471964 L82.572782,43.5471964 Z" id="Fill-32" fill="#FFFFFF" mask="url(#mask-2)"></path>
                <path d="M85.1010842,41.0138036 C84.5009475,41.0138036 84.2035441,41.5227321 84.1806259,41.9502321 L86.0274052,41.9502321 C86.0215425,41.5345179 85.7417274,41.0138036 85.1010842,41.0138036 M83.7201303,42.1313036 C83.7201303,41.3121964 84.3026786,40.6505893 85.106947,40.6505893 C85.9570517,40.6505893 86.4580539,41.3180893 86.4580539,42.166125 L86.4580539,42.2775536 L84.1864887,42.2775536 C84.2211325,42.8100536 84.5883564,43.2546964 85.1943559,43.2546964 C85.5205403,43.2546964 85.8408619,43.1255893 86.0679118,42.8920179 L86.2773734,43.178625 C85.9922285,43.4593393 85.613279,43.617375 85.1591791,43.617375 C84.3202669,43.617375 83.7206633,43.0146964 83.7201303,42.1313036" id="Fill-33" fill="#FFFFFF" mask="url(#mask-2)"></path>
                <path d="M87.1627082,43.5471964 L87.1627082,40.7213036 L87.5992197,40.7213036 L87.5992197,41.1718393 C87.8268026,40.8793393 88.152454,40.6564821 88.5372663,40.6564821 L88.5372663,41.1070179 C88.4850342,41.1016607 88.432269,41.0957679 88.3683113,41.0957679 C88.094892,41.0957679 87.7276681,41.3180893 87.5992197,41.5463036 L87.5992197,43.5471964 L87.1627082,43.5471964 Z" id="Fill-34" fill="#FFFFFF" mask="url(#mask-2)"></path>
            </g>
        </g>
    </g>
</svg>